<svg width="40" height="48" xmlns="http://www.w3.org/2000/svg"><g transform="translate(-6 -2)" fill="none" fill-rule="evenodd"><circle fill="none" cx="26" cy="26" r="26"/><g fill="#333" fill-rule="nonzero"><path d="M18.3 30.4c.7-1 1-2 1-3v-21c.9 1 2 2.1 3.2 2.7 2.2 1 2.3 2.6 2.2 4.3v.3a1.1 1.1 0 0 0 2.2 0v-.2c0-1.4.2-4.6-3.4-6.4-1.8-.8-3.8-3.5-4.4-4.5H19l-.3-.3-.4-.1H18h-.1-.1-.1l-.1.1h-.1v.1l-.3.3-.1.4v20.3c-1-.7-2.3-1-3.7-1-.8 0-1.6 0-2.4.3-3.5 1.1-5.6 4.4-4.7 7.3.8 2.2 3 3.7 5.7 3.7a7.8 7.8 0 0 0 6.3-3.3zm-1.8-1.2c-.6 1-1.6 1.6-2.8 2-.6.2-1.1.3-1.7.3-1.8 0-3.1-.9-3.5-2.1-.6-1.8.8-3.8 3.2-4.6.5-.2 1.1-.3 1.7-.3 1.7 0 3.1.9 3.5 2.2a3 3 0 0 1-.4 2.5zM45.7 36.5V12.8v-.1-.1-.2l-.1-.2V12h-.1V12h-.1l-.1-.1h-.1v-.1H45h-.1v-.1h-.1-.4-.1-.1l-15.7 7h-.2v.1l-.1.1H28v.1a1.2 1.2 0 0 0-.1.1l-.1.1a.8.8 0 0 0 0 .1v.1l-.1.1V39.8c-1-.7-2.3-1-3.7-1a7.8 7.8 0 0 0-6.3 3.2c-1 1.4-1.2 3-.7 4.4.7 2.2 3 3.7 5.6 3.7a7.8 7.8 0 0 0 6.4-3.3c.7-1 1-2.2.9-3.3V24.6l13.5-6v14.2c-1-.7-2.2-1-3.6-1-.8 0-1.6 0-2.4.3-3.5 1.2-5.6 4.4-4.7 7.4.8 2.2 3 3.6 5.7 3.6a7.8 7.8 0 0 0 6.3-3.3c.7-1 1-2.2 1-3.3zm-21.2 11l-1.8.3c-1.7 0-3-.9-3.5-2.1a3 3 0 0 1 .5-2.6c.6-.9 1.5-1.6 2.7-2l1.7-.3c1.8 0 3.2.9 3.6 2.2v.9c0 .6-.2 1.1-.5 1.6-.6 1-1.6 1.6-2.7 2zM30 22.2v-1.7l13.5-6v1.7l-13.5 6zm10.2 18.4c-.6.2-1.1.3-1.7.3-1.7 0-3.1-.8-3.5-2.1-.6-1.8.8-3.8 3.2-4.6l1.7-.2c1.7 0 3.1.8 3.5 2l.1.6v.4c0 .5-.2 1-.5 1.6-.6 1-1.6 1.6-2.8 2z"/></g></g></svg>
